<svg width="37" height="37" viewBox="0 0 37 37" fill="none" xmlns="http://www.w3.org/2000/svg">
<g clip-path="url(#clip0_523_344)">
<path d="M18.5 9.25033C22.5392 9.25033 26.0233 12.1178 26.8096 16.0799L27.2721 18.3924L29.6308 18.562C30.7898 18.6399 31.8761 19.154 32.6713 20.0007C33.4665 20.8473 33.9115 21.9638 33.9167 23.1253C33.9167 25.6691 31.8354 27.7503 29.2917 27.7503H9.25C5.84292 27.7503 3.08333 24.9907 3.08333 21.5837C3.08333 18.4232 5.44208 15.787 8.57167 15.4632L10.2212 15.2937L10.9921 13.8291C11.7011 12.4489 12.7771 11.2912 14.1018 10.4833C15.4265 9.67548 16.9484 9.24881 18.5 9.25033ZM18.5 6.16699C14.0446 6.16699 10.175 8.69533 8.24792 12.3953C5.98203 12.6402 3.88655 13.7138 2.36413 15.4098C0.841705 17.1058 -0.000264707 19.3046 6.24263e-08 21.5837C6.24263e-08 26.6866 4.14708 30.8337 9.25 30.8337H29.2917C33.5467 30.8337 37 27.3803 37 23.1253C37 19.0553 33.8396 15.7562 29.8312 15.4787C29.3134 12.8543 27.9005 10.4911 25.8338 8.79283C23.7671 7.09451 21.175 6.16639 18.5 6.16699Z" fill="#327FDE"/>
</g>
<defs>
<clipPath id="clip0_523_344">
<rect width="37" height="37" fill="white"/>
</clipPath>
</defs>
</svg>
