<svg width="37" height="37" viewBox="0 0 37 37" fill="none" xmlns="http://www.w3.org/2000/svg">
<path d="M3.0835 7.70833C3.0835 6.89058 3.40835 6.10632 3.98658 5.52809C4.56482 4.94985 5.34908 4.625 6.16683 4.625H30.8335C31.6512 4.625 32.4355 4.94985 33.0137 5.52809C33.592 6.10632 33.9168 6.89058 33.9168 7.70833V24.6667C33.9168 25.4844 33.592 26.2687 33.0137 26.8469C32.4355 27.4251 31.6512 27.75 30.8335 27.75H20.0418V30.8333H24.6668C25.0757 30.8333 25.4678 30.9958 25.757 31.2849C26.0461 31.574 26.2085 31.9661 26.2085 32.375C26.2085 32.7839 26.0461 33.176 25.757 33.4651C25.4678 33.7542 25.0757 33.9167 24.6668 33.9167H12.3335C11.9246 33.9167 11.5325 33.7542 11.2434 33.4651C10.9543 33.176 10.7918 32.7839 10.7918 32.375C10.7918 31.9661 10.9543 31.574 11.2434 31.2849C11.5325 30.9958 11.9246 30.8333 12.3335 30.8333H16.9585V27.75H6.16683C5.34908 27.75 4.56482 27.4251 3.98658 26.8469C3.40835 26.2687 3.0835 25.4844 3.0835 24.6667V7.70833ZM30.8335 24.6667V7.70833H6.16683V24.6667H30.8335Z" fill="#327FDE"/>
</svg>
