<svg width="37" height="37" viewBox="0 0 37 37" fill="none" xmlns="http://www.w3.org/2000/svg">
<path d="M18.4998 26.2087C17.6821 26.2087 16.8978 25.8838 16.3196 25.3056C15.7414 24.7273 15.4165 23.9431 15.4165 23.1253C15.4165 21.4141 16.7886 20.042 18.4998 20.042C19.3176 20.042 20.1018 20.3668 20.6801 20.9451C21.2583 21.5233 21.5832 22.3076 21.5832 23.1253C21.5832 23.9431 21.2583 24.7273 20.6801 25.3056C20.1018 25.8838 19.3176 26.2087 18.4998 26.2087ZM27.7498 30.8337V15.417H9.24984V30.8337H27.7498ZM27.7498 12.3337C28.5676 12.3337 29.3518 12.6585 29.9301 13.2367C30.5083 13.815 30.8332 14.5992 30.8332 15.417V30.8337C30.8332 31.6514 30.5083 32.4357 29.9301 33.0139C29.3518 33.5921 28.5676 33.917 27.7498 33.917H9.24984C8.43209 33.917 7.64783 33.5921 7.06959 33.0139C6.49135 32.4357 6.1665 31.6514 6.1665 30.8337V15.417C6.1665 13.7057 7.53859 12.3337 9.24984 12.3337H10.7915V9.25033C10.7915 7.20595 11.6036 5.2453 13.0492 3.79971C14.4948 2.35412 16.4555 1.54199 18.4998 1.54199C19.5121 1.54199 20.5145 1.74137 21.4497 2.12875C22.3849 2.51613 23.2347 3.08393 23.9505 3.79971C24.6662 4.5155 25.234 5.36526 25.6214 6.30047C26.0088 7.23569 26.2082 8.23805 26.2082 9.25033V12.3337H27.7498ZM18.4998 4.62533C17.2732 4.62533 16.0968 5.1126 15.2295 5.97996C14.3621 6.84731 13.8748 8.0237 13.8748 9.25033V12.3337H23.1248V9.25033C23.1248 8.0237 22.6376 6.84731 21.7702 5.97996C20.9029 5.1126 19.7265 4.62533 18.4998 4.62533Z" fill="#327FDE"/>
</svg>
