<svg width="29" height="26" viewBox="0 0 29 26" fill="none" xmlns="http://www.w3.org/2000/svg">
<path d="M17.1629 14.0939C17.1629 14.2568 17.0982 14.413 16.983 14.5282C16.8679 14.6434 16.7117 14.7081 16.5488 14.7081H14.7066V16.5506C14.7066 16.7135 14.6419 16.8697 14.5267 16.9849C14.4116 17.1001 14.2554 17.1648 14.0925 17.1648C13.9297 17.1648 13.7735 17.1001 13.6583 16.9849C13.5431 16.8697 13.4784 16.7135 13.4784 16.5506V14.7081H11.6362C11.4734 14.7081 11.3172 14.6434 11.202 14.5282C11.0869 14.413 11.0222 14.2568 11.0222 14.0939C11.0222 13.931 11.0869 13.7748 11.202 13.6596C11.3172 13.5444 11.4734 13.4797 11.6362 13.4797H13.4784V11.6371C13.4784 11.4742 13.5431 11.318 13.6583 11.2028C13.7735 11.0876 13.9297 11.0229 14.0925 11.0229C14.2554 11.0229 14.4116 11.0876 14.5267 11.2028C14.6419 11.318 14.7066 11.4742 14.7066 11.6371V13.4797H16.5488C16.7117 13.4797 16.8679 13.5444 16.983 13.6596C17.0982 13.7748 17.1629 13.931 17.1629 14.0939ZM22.82 22.823C22.7026 22.9365 22.5457 23 22.3825 23C22.2192 23 22.0623 22.9365 21.945 22.823L18.629 19.4987C17.2324 20.672 15.4369 21.2607 13.6169 21.1421C11.7969 21.0234 10.093 20.2066 8.86052 18.862C7.62802 17.5174 6.96211 15.7487 7.00167 13.925C7.04123 12.1012 7.78321 10.3631 9.07286 9.07325C10.3625 7.78336 12.1002 7.04124 13.9237 7.00167C15.7471 6.9621 17.5154 7.62814 18.8597 8.86087C20.2041 10.0936 21.0207 11.7979 21.1394 13.6182C21.258 15.4385 20.6694 17.2344 19.4963 18.6312L22.82 21.9478C22.9353 22.0643 23 22.2215 23 22.3854C23 22.5493 22.9353 22.7066 22.82 22.823ZM14.0925 19.9287C15.2463 19.9287 16.3742 19.5865 17.3335 18.9453C18.2929 18.3042 19.0406 17.3929 19.4821 16.3268C19.9237 15.2606 20.0392 14.0874 19.8141 12.9556C19.589 11.8237 19.0334 10.7841 18.2175 9.96806C17.4017 9.15205 16.3622 8.59634 15.2306 8.3712C14.099 8.14606 12.926 8.26161 11.8601 8.70323C10.7941 9.14485 9.88301 9.89271 9.242 10.8522C8.60098 11.8118 8.25884 12.9399 8.25884 14.0939C8.26088 15.6407 8.87615 17.1237 9.96973 18.2175C11.0633 19.3112 12.546 19.9266 14.0925 19.9287Z" fill="#232323"/>
</svg>
