<svg width="21" height="21" viewBox="0 0 21 21" fill="none" xmlns="http://www.w3.org/2000/svg">
<path d="M10.524 21C7.58116 21 5.09126 19.9815 3.05429 17.9446C1.0181 15.9085 0 13.419 0 10.4762C0 7.78685 0.876997 5.45291 2.63099 3.47445C4.38499 1.49676 6.6262 0.342266 9.35464 0.0109622C9.84186 -0.047503 10.2219 0.127893 10.4947 0.53715C10.7676 0.946407 10.7578 1.37515 10.4655 1.82339C10.1342 2.33009 9.88552 2.86602 9.71947 3.43118C9.55421 3.99635 9.47157 4.59074 9.47157 5.21437C9.47157 6.96833 10.0855 8.4592 11.3133 9.68697C12.5411 10.9147 14.032 11.5286 15.786 11.5286C16.3901 11.5286 16.9896 11.4409 17.5844 11.2655C18.1784 11.0901 18.7093 10.8465 19.177 10.5347C19.5863 10.2619 20.0053 10.2471 20.434 10.4903C20.8628 10.7343 21.0479 11.1194 20.9895 11.6456C20.7166 14.335 19.5719 16.5664 17.5552 18.3398C15.5377 20.1133 13.1939 21 10.524 21Z" fill="#232323"/>
</svg>
