<svg width="37" height="37" viewBox="0 0 37 37" fill="none" xmlns="http://www.w3.org/2000/svg">
<path d="M13.6438 25.9056L18.5 22.9764L23.3563 25.9441L22.0844 20.3941L26.3625 16.6941L20.7354 16.1931L18.5 10.9514L16.2646 16.1546L10.6375 16.6556L14.9156 20.3941L13.6438 25.9056ZM18.5 26.5993L12.1021 30.4535C11.8195 30.6334 11.524 30.7105 11.2156 30.6848C10.9073 30.6591 10.6375 30.5563 10.4063 30.3764C10.175 30.1966 9.99516 29.972 9.86668 29.7027C9.73821 29.4324 9.71252 29.1303 9.7896 28.7962L11.4854 21.5118L5.81981 16.6171C5.56286 16.3858 5.40253 16.1222 5.33881 15.8262C5.27406 15.5312 5.29307 15.2424 5.39585 14.9598C5.49863 14.6771 5.65279 14.4459 5.85835 14.266C6.06391 14.0862 6.34654 13.9705 6.70627 13.9191L14.1833 13.2639L17.074 6.40352C17.2024 6.09518 17.4018 5.86393 17.6721 5.70977C17.9414 5.5556 18.2174 5.47852 18.5 5.47852C18.7827 5.47852 19.0591 5.5556 19.3294 5.70977C19.5987 5.86393 19.7976 6.09518 19.9261 6.40352L22.8167 13.2639L30.2938 13.9191C30.6535 13.9705 30.9361 14.0862 31.1417 14.266C31.3472 14.4459 31.5014 14.6771 31.6042 14.9598C31.707 15.2424 31.7265 15.5312 31.6628 15.8262C31.598 16.1222 31.4372 16.3858 31.1802 16.6171L25.5146 21.5118L27.2104 28.7962C27.2875 29.1303 27.2618 29.4324 27.1334 29.7027C27.0049 29.972 26.825 30.1966 26.5938 30.3764C26.3625 30.5563 26.0927 30.6591 25.7844 30.6848C25.4761 30.7105 25.1806 30.6334 24.8979 30.4535L18.5 26.5993Z" fill="#327FDE"/>
</svg>
