<svg width="30" height="30" viewBox="0 0 30 30" fill="none" xmlns="http://www.w3.org/2000/svg">
<path d="M21.4167 10.3077H18.5V9.73077C18.4981 9.27233 18.3131 8.8332 17.9853 8.50903C17.6575 8.18486 17.2135 8.0019 16.75 8H13.25C12.7865 8.0019 12.3425 8.18486 12.0147 8.50903C11.6869 8.8332 11.5019 9.27233 11.5 9.73077V10.3077H8.58333C8.42862 10.3077 8.28025 10.3685 8.17085 10.4767C8.06146 10.5849 8 10.7316 8 10.8846C8 11.0376 8.06146 11.1844 8.17085 11.2926C8.28025 11.4008 8.42862 11.4615 8.58333 11.4615H9.16667V21.8462C9.16667 22.1522 9.28958 22.4457 9.50838 22.662C9.72717 22.8784 10.0239 23 10.3333 23H19.6667C19.9761 23 20.2728 22.8784 20.4916 22.662C20.7104 22.4457 20.8333 22.1522 20.8333 21.8462V11.4615H21.4167C21.5714 11.4615 21.7198 11.4008 21.8291 11.2926C21.9385 11.1844 22 11.0376 22 10.8846C22 10.7316 21.9385 10.5849 21.8291 10.4767C21.7198 10.3685 21.5714 10.3077 21.4167 10.3077ZM12.6667 9.73077C12.6667 9.57776 12.7281 9.43102 12.8375 9.32282C12.9469 9.21463 13.0953 9.15385 13.25 9.15385H16.75C16.9047 9.15385 17.0531 9.21463 17.1625 9.32282C17.2719 9.43102 17.3333 9.57776 17.3333 9.73077V10.3077H12.6667V9.73077ZM19.6667 21.8462H10.3333V11.4615H19.6667V21.8462ZM13.8333 14.3462V18.9615C13.8333 19.1145 13.7719 19.2613 13.6625 19.3695C13.5531 19.4777 13.4047 19.5385 13.25 19.5385C13.0953 19.5385 12.9469 19.4777 12.8375 19.3695C12.7281 19.2613 12.6667 19.1145 12.6667 18.9615V14.3462C12.6667 14.1931 12.7281 14.0464 12.8375 13.9382C12.9469 13.83 13.0953 13.7692 13.25 13.7692C13.4047 13.7692 13.5531 13.83 13.6625 13.9382C13.7719 14.0464 13.8333 14.1931 13.8333 14.3462ZM17.3333 14.3462V18.9615C17.3333 19.1145 17.2719 19.2613 17.1625 19.3695C17.0531 19.4777 16.9047 19.5385 16.75 19.5385C16.5953 19.5385 16.4469 19.4777 16.3375 19.3695C16.2281 19.2613 16.1667 19.1145 16.1667 18.9615V14.3462C16.1667 14.1931 16.2281 14.0464 16.3375 13.9382C16.4469 13.83 16.5953 13.7692 16.75 13.7692C16.9047 13.7692 17.0531 13.83 17.1625 13.9382C17.2719 14.0464 17.3333 14.1931 17.3333 14.3462Z" fill="#FF7272"/>
</svg>
